# xmcd CD database file
# Copyright (C) 1997 Ti Kan
# 
# Track frame offsets:
#     150
#     18502
#     32925
#     50080
#     61415
#     76237
#     92207
#     106935
#     121665
#     135710
# 
# Disc length: 2050 seconds
# 
# Revision: 1
# Processed by: cddbd v1.4b41PL1 Copyright (c) Steve Scherf et al.
# Submitted via: DiscPlay 4.0.4
# 
DISCID=8108000a
DTITLE=Crystal Gayle - Greatest Hits
DYEAR=1900
DGENRE=
TTITLE0=Half The Way
TTITLE1=You Never Gave Up On Me
TTITLE2=Too Many Lovers
TTITLE3=The Woman In Me
TTITLE4=The Blue Side
TTITLE5=It's Like We Never Said Goodbye
TTITLE6=Livin' In These Troubled Times
TTITLE7=If You Ever Change Your Mind
TTITLE8=Keepin' Power
TTITLE9=Take It Easy
EXTD=
EXTT0=
EXTT1=
EXTT2=
EXTT3=
EXTT4=
EXTT5=
EXTT6=
EXTT7=
EXTT8=
EXTT9=
PLAYORDER=
